PathFileType	4	(X/Y/Z)	Demo_0-100.trc
DataRate	CameraRate	NumFrames	NumMarkers	Units	OrigDataRate	OrigDataStartFrame	OrigNumFrames
60	60	7	21	m	60	62	100
Frame#	Time	RHip			RKnee			RAnkle			RBigToe			RSmallToe			RHeel			LHip			LKnee			LAnkle			LBigToe			LSmallToe			LHeel			Neck			Head			Nose			RShoulder			RElbow			RWrist			LShoulder			LElbow			LWrist		
		X1	Y1	Z1	X2	Y2	Z2	X3	Y3	Z3	X4	Y4	Z4	X5	Y5	Z5	X6	Y6	Z6	X7	Y7	Z7	X8	Y8	Z8	X9	Y9	Z9	X10	Y10	Z10	X11	Y11	Z11	X12	Y12	Z12	X13	Y13	Z13	X14	Y14	Z14	X15	Y15	Z15	X16	Y16	Z16	X17	Y17	Z17	X18	Y18	Z18	X19	Y19	Z19	X20	Y20	Z20	X21	Y21	Z21
63	1.05	-0.22592226185654304	1.002263312850943	-0.9630560196566398	-0.33774455623249816	0.6448535057603303	-0.7945923398613174	-0.4151763744832346	0.27155548795886175	-0.7857406538131769	-0.374094797823041	0.19430528646054865	-0.6258200039655049	-0.4361999827344335	0.19417461783011963	-0.6650423832724423	-0.42294696782259045	0.25170955660780686	-0.7918171836901737	-0.060324640221894966	0.9072442480925013	-1.0769360299921937	-0.05477320620312631	0.52324627679585	-0.9249233855580571	-0.01537738373599996	0.13829160647807598	-1.1519935878181058	-0.01134734248014178	0.07181486532172024	-0.9884676364640718	0.017732209849667672	0.0757190739612708	-1.0327877099875749	-0.012571396151304239	0.09699316441335477	-1.1957161397384737	0.18619754735525484	1.3268820326540056	-0.8765244919957622	0.3836602172800341	1.5076747680510645	-0.6908947315083522	0.25711673437251265	1.3608594054159155	-0.6850028673436408	0.05537569668979566	1.4467725421176316	-0.8460566118361922	-0.2082804965146901	1.4823807621901068	-0.8646938348360731	-0.10841395521200523	1.5817766955667838	-0.6637166792230618	0.3109227997178283	1.2181298064690897	-0.9696422516874711	0.3840570199828453	0.9364888377914697	-1.0117459675580633	0.4282561925142182	0.6955277337494794	-0.942262318849634
64	1.0666666666666667	-0.22199717870731397	1.00358346143994	-0.9550247451587631	-0.32053548517726727	0.635706059651916	-0.7903382268591556	-0.36451304516080346	0.26775031073797223	-0.7575251658808323	-0.33293460753905296	0.18638719952144112	-0.6236518487069123	-0.3987313933339024	0.18791600446193069	-0.6432510422726232	-0.3770591397059713	0.22458156256003772	-0.7737581991405783	-0.061853915162869956	0.9178213124099652	-1.0761846729236872	-0.051403392666244524	0.5234388557349237	-0.92751820499663	-0.009168026733335817	0.14955174398762722	-1.1101161321283908	-0.007051537635010517	0.07697882987344608	-0.9918835660746443	0.02304227578855167	0.075621694814733	-1.0312407768782506	-0.012988582102280807	0.09804677382879573	-1.1962903160829166	0.17800756144033036	1.3390130428855282	-0.869738906913099	0.37780913322106047	1.5114672811975112	-0.6731209955363257	0.25637714680470775	1.3644814362069797	-0.6844499745719872	0.04873010244967206	1.4528548746474246	-0.8421896604890176	-0.21454855922750243	1.4744369565549633	-0.8619603761634242	-0.11409376187030579	1.5911895050333744	-0.6260998124039505	0.32224897717744955	1.2387828062165371	-0.9191429006521635	0.385762112203516	0.955798186326042	-0.9624513564884886	0.4271234293438698	0.7004884149385292	-0.9318117725511269
65	1.0833333333333333	-0.22164338964694671	0.995795651842115	-0.9491169880205811	-0.3028882868377298	0.6307087941966226	-0.7780949779598002	-0.33123339610265856	0.2645359904638484	-0.7431308466940864	-0.29632304113235863	0.2175252875155357	-0.5628341108715696	-0.3472035060435007	0.18547741896007255	-0.6305191293731122	-0.3481512729361938	0.2336079153456361	-0.7624409679772323	-0.05700868568519566	0.913524094035709	-1.0740255531092695	-0.04523204265667118	0.5220089945339437	-0.9214355174677684	-0.004875117678134044	0.1523597111496051	-1.1053638605977871	-0.0038907582778747525	0.07782551598755601	-0.988428195820822	0.006991185991591293	0.0762862494800483	-1.0555103481889674	-0.016655649212821748	0.10322082109978027	-1.1937136096859065	0.17597303517142834	1.3441395626521457	-0.8674686874462545	0.3687932401512359	1.5110149278809717	-0.6752006244529838	0.2572231602111048	1.3607969119010324	-0.6854479534195284	0.044844228739187954	1.4543988573887288	-0.8385053840153275	-0.2294065693125593	1.4738339008783143	-0.8533643110648741	-0.12234794350964126	1.584713255164116	-0.6259760418779406	0.3052978953591828	1.2333994699427506	-0.9588268495037906	0.3792142358062984	0.9536302572254926	-0.9856195466922469	0.428038550119204	0.7097095998730621	-0.920333312150506
66	1.1	-0.21676243449922583	0.9885523839608041	-0.9471807109096148	-0.2769912322070388	0.6226625540018174	-0.7669262580575221	-0.2936176740715756	0.23572433445344018	-0.7260918718673184	-0.22899755900151117	0.14740697895453278	-0.6293806073556626	-0.2848895554924371	0.1444624065864497	-0.6358799066575485	-0.26316356490384124	0.1836633831346541	-0.7820371786052012	-0.06377896151979966	0.9154937447630189	-1.058455390482033	-0.06961989902110186	0.5041434025128301	-1.0076979170326232	-0.017810010458248735	0.13929814853790765	-1.1444869090079397	-0.00471713191490576	0.06911629579966459	-0.986572816906288	-0.00417143146241125	0.07307479896131412	-1.0579525360615012	-0.020989287320158867	0.09922010543813153	-1.1919762517015677	0.16878417518084632	1.3466242337828351	-0.8558932316486357	0.36996118712981363	1.5160114014542367	-0.6632374801102513	0.24813285507670585	1.3708815413075677	-0.6796781900121956	0.0043732895265198475	1.4274512256223246	-0.8918945191704805	-0.24421156658027396	1.4654427848949152	-0.8447653723061602	-0.1383048468475356	1.5787634612575987	-0.6301089810461503	0.32058134711299335	1.2466854831117222	-0.9000824485367822	0.37713132576480995	0.9531529288275031	-0.9775746048193061	0.42775689653862614	0.7068562356797683	-0.9048384813242147
67	1.1166666666666667	-0.22371982975979865	0.9837588995956016	-0.9383600343455638	-0.2534999599404153	0.606811048270001	-0.7799412642586273	-0.2594586867603278	0.218024176832398	-0.7361064025279932	-0.20360734800766106	0.142144442812868	-0.6174868682988635	-0.23307435777212707	0.13035064394790827	-0.6270891996540608	-0.27181341177198187	0.19657065528476309	-0.7446127143691575	-0.04996540831788367	0.9117040932851866	-1.0538161656367158	-0.04015658395382686	0.5172805139133828	-0.932305728642377	-0.011207489286847637	0.14415983688331588	-1.1006710448381405	-0.010244556472531908	0.0707678008238383	-1.0064300352778746	0.007957460547241198	0.07157474304852629	-1.0697076370183431	-0.009266881597457699	0.10843292436933527	-1.127766528573608	0.16296552717385254	1.3493404378199512	-0.8495818153104336	0.3566048444963453	1.5228455674412937	-0.6621902678160658	0.247856814907167	1.372140173149325	-0.679638607925428	0.0127048145271384	1.4555188197719409	-0.8097552953420999	-0.24767295549907517	1.4644582769073373	-0.8426940812431227	-0.15269116144800352	1.566095884404561	-0.596816670589335	0.31087682916744896	1.254444244045797	-0.8815799652620185	0.3718702323983371	0.969174935936663	-0.9756799584086825	0.4299827647385169	0.7241849328618524	-0.8952424314840045
68	1.1333333333333333	-0.2189627853248304	0.9770459353411398	-0.9351120758604596	-0.2290668179603643	0.5934216448366679	-0.795347523686664	-0.22777420148382904	0.21034989057903242	-0.7450934850214148	-0.1625967001417613	0.13081619889065085	-0.6085399664128172	-0.21443554936802395	0.1338029057322833	-0.6207802327096793	-0.24841965178083328	0.19268397388977818	-0.7393161732261617	-0.056398614049245746	0.9144473904534034	-1.0412238819801243	-0.040386316206534725	0.5176161348603017	-0.925950665129401	-0.028616824773748342	0.1476952863583259	-1.1643310675077414	0.007490028413193457	0.05460988083008806	-0.99539905265716	0.0047118469376020225	0.07309246661257704	-1.0695984335700777	-0.03966723187496956	0.11128107680677503	-1.1902893695622765	0.15728890734738224	1.3577047587660405	-0.8445236583028995	0.29500298880781545	1.5511929801699451	-0.7808344200243047	0.23004664862535262	1.3831813627283254	-0.6652977093249891	0.007792498621178466	1.456378832844592	-0.8048822352216826	-0.2684553730262564	1.456106376443072	-0.836583325595648	-0.16342450811471013	1.5365996024204966	-0.6456432137347115	0.30627744374548804	1.2672690619591764	-0.8761170298507349	0.3774324815275897	0.9754413275006847	-0.932996344125127	0.42851707411586387	0.7277867490631476	-0.8902575132734686
69	1.15	-0.21380388698439573	0.9743580974021846	-0.9341338831856677	-0.2049114439625832	0.5794465506939955	-0.8073076370382347	-0.20764989220981825	0.19696805310371235	-0.7332599337866914	-0.1350816402965513	0.11368107657024973	-0.5975248928967034	-0.19578273853357023	0.1249911524355333	-0.5972213488721694	-0.21336799139234067	0.17469663419547826	-0.736215222462192	-0.051986650407228656	0.9152893043607274	-1.045653570631157	-0.045165501391962536	0.5227735740072135	-0.9308206014705341	-0.028011050000395016	0.17837188081126176	-1.1324132808747782	-0.013600310699714891	0.0646511051250158	-0.9941610756723406	9.512746072351083e-05	0.07321414163481267	-1.0633895894318404	-0.03626986652181012	0.14081049728421452	-1.1448307014130927	0.15575936707289859	1.36173761077838	-0.8319546023302143	0.2790365972140898	1.5679201919663404	-0.7589622772016958	0.23979698685682616	1.387443485537692	-0.6624239263919176	-0.022065661984255407	1.4302583149792936	-0.8534800885349967	-0.27382851915168416	1.4538387179893375	-0.8445451138185885	-0.18921032386741857	1.529580019497175	-0.6292712203745229	0.29411157996259124	1.2743015183701962	-0.8596847745825253	0.3737979433632564	0.9864067445302156	-0.931635637654032	0.4255095378841284	0.7394500105703555	-0.8750025001754288
